<svg xmlns="http://www.w3.org/2000/svg" xmlns:xlink="http://www.w3.org/1999/xlink" width="500" zoomAndPan="magnify" viewBox="0 0 375 374.999991" height="500" preserveAspectRatio="xMidYMid meet" version="1.0"><defs><g/><clipPath id="1177f3d45b"><path d="M 223 163 L 289.894531 163 L 289.894531 177.558594 L 223 177.558594 Z M 223 163 " clip-rule="nonzero"/></clipPath><clipPath id="1c06916c60"><path d="M 79.167969 163 L 146 163 L 146 177.558594 L 79.167969 177.558594 Z M 79.167969 163 " clip-rule="nonzero"/></clipPath><clipPath id="5c98d10aed"><path d="M 102 85.894531 L 267 85.894531 L 267 154 L 102 154 Z M 102 85.894531 " clip-rule="nonzero"/></clipPath></defs><g clip-path="url(#1177f3d45b)"><path fill="#1ac6d6" d="M 256.816406 163.414062 C 256.898438 163.414062 256.984375 163.445312 257.039062 163.511719 C 265.703125 173.566406 277.355469 178.046875 289.398438 167.285156 C 289.503906 167.191406 289.664062 167.1875 289.78125 167.269531 C 289.894531 167.363281 289.925781 167.519531 289.859375 167.644531 C 283.367188 179.6875 266.113281 180.433594 256.816406 171.546875 C 247.515625 180.433594 230.265625 179.6875 223.773438 167.644531 C 223.703125 167.519531 223.738281 167.363281 223.851562 167.269531 C 223.964844 167.1875 224.125 167.191406 224.230469 167.285156 C 236.273438 178.050781 247.925781 173.566406 256.589844 163.511719 C 256.644531 163.445312 256.730469 163.414062 256.8125 163.414062 Z M 256.816406 163.414062 " fill-opacity="1" fill-rule="evenodd"/></g><g clip-path="url(#1c06916c60)"><path fill="#1ac6d6" d="M 112.246094 163.414062 C 112.332031 163.414062 112.414062 163.445312 112.46875 163.511719 C 121.132812 173.566406 132.785156 178.046875 144.832031 167.285156 C 144.933594 167.191406 145.097656 167.1875 145.210938 167.269531 C 145.324219 167.363281 145.355469 167.519531 145.289062 167.644531 C 138.796875 179.6875 121.542969 180.433594 112.246094 171.546875 C 102.945312 180.433594 85.695312 179.6875 79.203125 167.644531 C 79.136719 167.519531 79.167969 167.363281 79.28125 167.269531 C 79.394531 167.1875 79.554688 167.191406 79.660156 167.285156 C 91.703125 178.050781 103.355469 173.566406 112.019531 163.511719 C 112.074219 163.445312 112.160156 163.414062 112.242188 163.414062 Z M 112.246094 163.414062 " fill-opacity="1" fill-rule="evenodd"/></g><path fill="#ffffff" d="M 184.53125 159.542969 C 177.933594 153.042969 169.261719 152.441406 163.464844 154.832031 C 163.199219 154.941406 163.046875 155.207031 163.089844 155.492188 C 163.128906 155.777344 163.347656 155.988281 163.636719 156.019531 C 173.753906 157.109375 179.53125 163.121094 183.976562 172.15625 C 184.082031 172.375 184.289062 172.503906 184.53125 172.503906 C 184.773438 172.503906 184.980469 172.375 185.085938 172.15625 C 189.53125 163.121094 195.308594 157.109375 205.425781 156.019531 C 205.710938 155.992188 205.933594 155.777344 205.972656 155.492188 C 206.011719 155.207031 205.859375 154.941406 205.59375 154.832031 C 199.796875 152.441406 191.128906 153.042969 184.53125 159.542969 Z M 184.53125 159.542969 " fill-opacity="1" fill-rule="evenodd"/><g clip-path="url(#5c98d10aed)"><path fill="#ff3377" d="M 122.027344 153.496094 C 121.929688 153.496094 121.828125 153.472656 121.738281 153.414062 C 121.488281 153.261719 121.398438 152.941406 121.53125 152.683594 C 127.195312 141.761719 136.207031 132.148438 146.914062 125.613281 C 157.960938 118.808594 171.308594 115.058594 184.5 115.058594 L 184.554688 115.058594 C 197.75 115.058594 211.097656 118.808594 222.144531 125.617188 C 232.847656 132.148438 241.863281 141.761719 247.523438 152.683594 C 247.660156 152.945312 247.570312 153.261719 247.320312 153.414062 C 247.074219 153.570312 246.742188 153.503906 246.574219 153.261719 C 239.546875 143.394531 230.164062 135.25 219.4375 129.707031 C 208.765625 124.164062 196.695312 121.230469 184.527344 121.222656 C 172.359375 121.230469 160.289062 124.164062 149.621094 129.707031 C 138.890625 135.246094 129.507812 143.390625 122.480469 153.261719 C 122.371094 153.414062 122.199219 153.496094 122.027344 153.496094 Z M 144.742188 95.019531 C 142.945312 95.804688 141.714844 98.007812 142.839844 100.691406 C 144.289062 104.132812 148.511719 108.046875 150.46875 109.269531 C 150.5625 109.328125 150.667969 109.355469 150.777344 109.355469 C 150.855469 109.355469 150.933594 109.339844 151.007812 109.308594 C 151.183594 109.230469 151.308594 109.074219 151.34375 108.886719 C 151.769531 106.617188 151.753906 100.859375 150.203125 97.460938 C 148.992188 94.816406 146.539062 94.230469 144.742188 95.019531 Z M 127.5 105.9375 C 125.996094 107.027344 125.300781 109.304688 126.875 111.558594 C 128.886719 114.425781 133.539062 117.175781 135.578125 117.910156 C 135.640625 117.929688 135.707031 117.941406 135.773438 117.941406 C 135.890625 117.941406 136.011719 117.90625 136.109375 117.832031 C 136.265625 117.722656 136.355469 117.539062 136.351562 117.351562 C 136.292969 115.183594 135.132812 109.90625 133.03125 107.101562 C 131.386719 104.898438 129 104.847656 127.5 105.9375 Z M 107.539062 136.367188 C 105.582031 135.292969 103.800781 136.058594 103.050781 137.375 C 102.300781 138.691406 102.546875 140.617188 104.46875 141.75 C 106.585938 143 110.160156 143.5 112.132812 143.5 C 112.378906 143.5 112.605469 143.492188 112.796875 143.476562 C 112.988281 143.460938 113.15625 143.355469 113.253906 143.1875 C 113.347656 143.023438 113.351562 142.820312 113.269531 142.648438 C 112.523438 141.113281 109.96875 137.699219 107.539062 136.367188 Z M 164.082031 88.242188 C 162.097656 88.660156 160.394531 90.628906 160.96875 93.578125 C 161.699219 97.328125 165.214844 102.289062 166.898438 103.898438 C 167.007812 104 167.148438 104.058594 167.296875 104.058594 C 167.335938 104.058594 167.375 104.054688 167.414062 104.046875 C 167.601562 104.007812 167.757812 103.878906 167.828125 103.703125 C 168.71875 101.550781 169.933594 95.589844 169.085938 91.867188 C 168.417969 88.9375 166.066406 87.828125 164.082031 88.242188 Z M 113.375 120.339844 C 112.234375 121.609375 112.042969 123.789062 113.886719 125.507812 C 116.214844 127.679688 120.867188 129.242188 122.816406 129.507812 C 122.84375 129.511719 122.867188 129.511719 122.894531 129.511719 C 123.054688 129.511719 123.210938 129.445312 123.320312 129.320312 C 123.449219 129.179688 123.5 128.984375 123.453125 128.800781 C 122.992188 126.886719 120.964844 122.421875 118.570312 120.324219 C 116.671875 118.664062 114.519531 119.078125 113.375 120.34375 Z M 266.007812 137.378906 C 265.261719 136.0625 263.480469 135.292969 261.523438 136.367188 C 259.09375 137.703125 256.539062 141.117188 255.792969 142.652344 C 255.707031 142.824219 255.714844 143.023438 255.808594 143.191406 C 255.902344 143.355469 256.074219 143.464844 256.261719 143.480469 C 256.457031 143.496094 256.679688 143.503906 256.933594 143.503906 C 258.902344 143.503906 262.476562 143 264.589844 141.753906 C 266.511719 140.617188 266.757812 138.695312 266.011719 137.378906 Z M 255.6875 120.34375 C 254.542969 119.078125 252.390625 118.664062 250.496094 120.324219 C 248.097656 122.421875 246.070312 126.890625 245.609375 128.800781 C 245.5625 128.984375 245.613281 129.179688 245.742188 129.324219 C 245.851562 129.445312 246.007812 129.511719 246.171875 129.511719 C 246.195312 129.511719 246.222656 129.511719 246.246094 129.507812 C 248.195312 129.242188 252.847656 127.683594 255.175781 125.511719 C 257.019531 123.792969 256.828125 121.609375 255.6875 120.34375 Z M 184.53125 85.910156 C 182.484375 85.910156 180.386719 87.5 180.339844 90.539062 C 180.28125 94.398438 182.726562 100.046875 184.054688 101.992188 C 184.164062 102.148438 184.339844 102.246094 184.53125 102.246094 C 184.71875 102.246094 184.898438 102.152344 185.007812 101.992188 C 186.335938 100.050781 188.78125 94.402344 188.722656 90.539062 C 188.675781 87.5 186.578125 85.910156 184.53125 85.910156 Z M 241.5625 105.941406 C 240.0625 104.851562 237.675781 104.902344 236.03125 107.101562 C 233.929688 109.90625 232.769531 115.183594 232.710938 117.351562 C 232.707031 117.542969 232.796875 117.722656 232.949219 117.832031 C 233.050781 117.90625 233.167969 117.941406 233.289062 117.941406 C 233.355469 117.941406 233.421875 117.933594 233.484375 117.910156 C 235.523438 117.175781 240.175781 114.429688 242.183594 111.558594 C 243.761719 109.304688 243.066406 107.027344 241.5625 105.9375 Z M 204.980469 88.242188 C 203.003906 87.820312 200.644531 88.933594 199.976562 91.867188 C 199.117188 95.640625 200.320312 101.488281 201.234375 103.703125 C 201.304688 103.878906 201.460938 104.007812 201.648438 104.046875 C 201.6875 104.054688 201.726562 104.058594 201.765625 104.058594 C 201.914062 104.058594 202.058594 104.003906 202.164062 103.898438 C 203.84375 102.289062 207.363281 97.328125 208.09375 93.578125 C 208.667969 90.628906 206.960938 88.664062 204.980469 88.242188 Z M 224.320312 95.019531 C 222.527344 94.234375 220.070312 94.820312 218.863281 97.464844 C 217.308594 100.859375 217.292969 106.617188 217.71875 108.886719 C 217.753906 109.074219 217.878906 109.230469 218.054688 109.308594 C 218.128906 109.339844 218.207031 109.355469 218.285156 109.355469 C 218.390625 109.355469 218.496094 109.328125 218.589844 109.269531 C 220.496094 108.082031 224.792969 104.089844 226.222656 100.691406 C 227.347656 98.011719 226.117188 95.808594 224.320312 95.019531 Z M 224.320312 95.019531 " fill-opacity="1" fill-rule="evenodd"/></g><g fill="#ffffff" fill-opacity="1"><g transform="translate(12.686004, 234.972443)"><g><path d="M 15.375 0.53125 C 11.425781 0.53125 8.296875 -0.59375 5.984375 -2.84375 C 3.679688 -5.101562 2.460938 -8.3125 2.328125 -12.46875 L 2.265625 -13.78125 C 2.265625 -18.1875 3.414062 -21.65625 5.71875 -24.1875 C 8.03125 -26.726562 11.226562 -28 15.3125 -28 C 19.507812 -28 22.742188 -26.726562 25.015625 -24.1875 C 27.285156 -21.65625 28.421875 -18.273438 28.421875 -14.046875 L 28.421875 -12.9375 C 28.421875 -12.59375 28.296875 -12.296875 28.046875 -12.046875 C 27.804688 -11.796875 27.488281 -11.671875 27.09375 -11.671875 L 9.5625 -11.671875 L 9.5625 -11.25 C 9.632812 -9.28125 10.171875 -7.648438 11.171875 -6.359375 C 12.171875 -5.078125 13.550781 -4.4375 15.3125 -4.4375 C 17.320312 -4.4375 18.960938 -5.25 20.234375 -6.875 C 20.546875 -7.257812 20.789062 -7.492188 20.96875 -7.578125 C 21.144531 -7.671875 21.445312 -7.71875 21.875 -7.71875 L 26.515625 -7.71875 C 26.835938 -7.71875 27.113281 -7.628906 27.34375 -7.453125 C 27.570312 -7.273438 27.6875 -7.023438 27.6875 -6.703125 C 27.6875 -5.859375 27.179688 -4.863281 26.171875 -3.71875 C 25.171875 -2.570312 23.738281 -1.578125 21.875 -0.734375 C 20.007812 0.109375 17.84375 0.53125 15.375 0.53125 Z M 21.125 -16.171875 L 21.125 -16.265625 C 21.125 -18.347656 20.601562 -20.015625 19.5625 -21.265625 C 18.53125 -22.515625 17.113281 -23.140625 15.3125 -23.140625 C 13.519531 -23.140625 12.113281 -22.515625 11.09375 -21.265625 C 10.070312 -20.015625 9.5625 -18.347656 9.5625 -16.265625 L 9.5625 -16.171875 Z M 21.125 -16.171875 "/></g></g></g><g fill="#ffffff" fill-opacity="1"><g transform="translate(45.853644, 234.972443)"><g><path d="M 5.390625 0 C 5.035156 0 4.734375 -0.117188 4.484375 -0.359375 C 4.242188 -0.609375 4.125 -0.910156 4.125 -1.265625 L 4.125 -35.65625 C 4.125 -36.039062 4.238281 -36.359375 4.46875 -36.609375 C 4.695312 -36.859375 5.003906 -36.984375 5.390625 -36.984375 L 9.671875 -36.984375 C 10.335938 -36.984375 10.863281 -36.644531 11.25 -35.96875 L 21.453125 -17.0625 L 31.640625 -35.96875 C 32.023438 -36.644531 32.554688 -36.984375 33.234375 -36.984375 L 37.453125 -36.984375 C 37.835938 -36.984375 38.15625 -36.859375 38.40625 -36.609375 C 38.65625 -36.359375 38.78125 -36.039062 38.78125 -35.65625 L 38.78125 -1.265625 C 38.78125 -0.878906 38.65625 -0.570312 38.40625 -0.34375 C 38.15625 -0.113281 37.835938 0 37.453125 0 L 32.90625 0 C 32.5625 0 32.265625 -0.117188 32.015625 -0.359375 C 31.765625 -0.609375 31.640625 -0.910156 31.640625 -1.265625 L 31.640625 -23.984375 L 24.296875 -10.03125 C 23.910156 -9.257812 23.332031 -8.875 22.5625 -8.875 L 20.34375 -8.875 C 19.601562 -8.875 19.003906 -9.257812 18.546875 -10.03125 L 11.203125 -23.984375 L 11.203125 -1.265625 C 11.203125 -0.910156 11.085938 -0.609375 10.859375 -0.359375 C 10.628906 -0.117188 10.320312 0 9.9375 0 Z M 5.390625 0 "/></g></g></g><g fill="#ffffff" fill-opacity="1"><g transform="translate(91.379504, 234.972443)"><g><path d="M 11.46875 0.53125 C 9.664062 0.53125 8.015625 0.171875 6.515625 -0.546875 C 5.023438 -1.273438 3.847656 -2.253906 2.984375 -3.484375 C 2.117188 -4.710938 1.6875 -6.066406 1.6875 -7.546875 C 1.6875 -9.941406 2.65625 -11.878906 4.59375 -13.359375 C 6.53125 -14.835938 9.191406 -15.84375 12.578125 -16.375 L 19.8125 -17.4375 L 19.8125 -18.546875 C 19.8125 -20.054688 19.421875 -21.195312 18.640625 -21.96875 C 17.867188 -22.75 16.640625 -23.140625 14.953125 -23.140625 C 13.785156 -23.140625 12.847656 -22.925781 12.140625 -22.5 C 11.441406 -22.082031 10.867188 -21.648438 10.421875 -21.203125 C 9.984375 -20.765625 9.695312 -20.476562 9.5625 -20.34375 C 9.414062 -19.914062 9.148438 -19.703125 8.765625 -19.703125 L 4.65625 -19.703125 C 4.332031 -19.703125 4.054688 -19.804688 3.828125 -20.015625 C 3.597656 -20.234375 3.484375 -20.515625 3.484375 -20.859375 C 3.523438 -21.742188 3.957031 -22.738281 4.78125 -23.84375 C 5.601562 -24.957031 6.878906 -25.925781 8.609375 -26.75 C 10.335938 -27.582031 12.46875 -28 15 -28 C 19.15625 -28 22.179688 -27.066406 24.078125 -25.203125 C 25.984375 -23.335938 26.9375 -20.890625 26.9375 -17.859375 L 26.9375 -1.265625 C 26.9375 -0.910156 26.820312 -0.609375 26.59375 -0.359375 C 26.363281 -0.117188 26.054688 0 25.671875 0 L 21.296875 0 C 20.941406 0 20.640625 -0.117188 20.390625 -0.359375 C 20.140625 -0.609375 20.015625 -0.910156 20.015625 -1.265625 L 20.015625 -3.328125 C 19.242188 -2.203125 18.15625 -1.273438 16.75 -0.546875 C 15.34375 0.171875 13.582031 0.53125 11.46875 0.53125 Z M 13.265625 -4.546875 C 15.203125 -4.546875 16.785156 -5.175781 18.015625 -6.4375 C 19.242188 -7.707031 19.859375 -9.539062 19.859375 -11.9375 L 19.859375 -13 L 14.578125 -12.15625 C 10.523438 -11.519531 8.5 -10.160156 8.5 -8.078125 C 8.5 -6.953125 8.96875 -6.082031 9.90625 -5.46875 C 10.84375 -4.851562 11.960938 -4.546875 13.265625 -4.546875 Z M 13.265625 -4.546875 "/></g></g></g><g fill="#ffffff" fill-opacity="1"><g transform="translate(124.230264, 234.972443)"><g><path d="M 4.75 0 C 4.394531 0 4.09375 -0.117188 3.84375 -0.359375 C 3.601562 -0.609375 3.484375 -0.910156 3.484375 -1.265625 L 3.484375 -26.203125 C 3.484375 -26.585938 3.601562 -26.894531 3.84375 -27.125 C 4.09375 -27.351562 4.394531 -27.46875 4.75 -27.46875 L 9.140625 -27.46875 C 9.523438 -27.46875 9.832031 -27.351562 10.0625 -27.125 C 10.289062 -26.894531 10.40625 -26.585938 10.40625 -26.203125 L 10.40625 -24.03125 C 12.550781 -26.675781 15.492188 -28 19.234375 -28 C 22.472656 -28 25.039062 -26.941406 26.9375 -24.828125 C 28.84375 -22.710938 29.796875 -19.804688 29.796875 -16.109375 L 29.796875 -1.265625 C 29.796875 -0.910156 29.679688 -0.609375 29.453125 -0.359375 C 29.222656 -0.117188 28.914062 0 28.53125 0 L 23.765625 0 C 23.421875 0 23.125 -0.117188 22.875 -0.359375 C 22.625 -0.609375 22.5 -0.910156 22.5 -1.265625 L 22.5 -15.796875 C 22.5 -17.835938 22 -19.429688 21 -20.578125 C 20 -21.722656 18.5625 -22.296875 16.6875 -22.296875 C 14.894531 -22.296875 13.453125 -21.710938 12.359375 -20.546875 C 11.265625 -19.390625 10.71875 -17.804688 10.71875 -15.796875 L 10.71875 -1.265625 C 10.71875 -0.910156 10.601562 -0.609375 10.375 -0.359375 C 10.144531 -0.117188 9.835938 0 9.453125 0 Z M 4.75 0 "/></g></g></g><g fill="#ffffff" fill-opacity="1"><g transform="translate(159.880108, 234.972443)"><g><path d="M 3.375 0 C 3.03125 0 2.734375 -0.117188 2.484375 -0.359375 C 2.234375 -0.609375 2.109375 -0.910156 2.109375 -1.265625 L 2.109375 -4.328125 C 2.109375 -4.648438 2.171875 -4.929688 2.296875 -5.171875 C 2.421875 -5.421875 2.609375 -5.722656 2.859375 -6.078125 L 16.328125 -21.875 L 3.796875 -21.875 C 3.453125 -21.875 3.15625 -22.003906 2.90625 -22.265625 C 2.65625 -22.523438 2.53125 -22.832031 2.53125 -23.1875 L 2.53125 -26.203125 C 2.53125 -26.554688 2.65625 -26.851562 2.90625 -27.09375 C 3.15625 -27.34375 3.453125 -27.46875 3.796875 -27.46875 L 23.9375 -27.46875 C 24.28125 -27.46875 24.578125 -27.34375 24.828125 -27.09375 C 25.078125 -26.851562 25.203125 -26.554688 25.203125 -26.203125 L 25.203125 -22.921875 C 25.203125 -22.640625 25.117188 -22.359375 24.953125 -22.078125 C 24.796875 -21.796875 24.628906 -21.535156 24.453125 -21.296875 L 11.25 -5.59375 L 24.984375 -5.59375 C 25.335938 -5.59375 25.632812 -5.46875 25.875 -5.21875 C 26.125 -4.976562 26.25 -4.664062 26.25 -4.28125 L 26.25 -1.265625 C 26.25 -0.910156 26.132812 -0.609375 25.90625 -0.359375 C 25.675781 -0.117188 25.367188 0 24.984375 0 Z M 3.375 0 "/></g></g></g><g fill="#ffffff" fill-opacity="1"><g transform="translate(190.618358, 234.972443)"><g><path d="M 4.546875 -31.96875 C 4.191406 -31.96875 3.890625 -32.085938 3.640625 -32.328125 C 3.398438 -32.578125 3.28125 -32.878906 3.28125 -33.234375 L 3.28125 -37.078125 C 3.28125 -37.472656 3.398438 -37.789062 3.640625 -38.03125 C 3.890625 -38.28125 4.191406 -38.40625 4.546875 -38.40625 L 9.40625 -38.40625 C 9.789062 -38.40625 10.101562 -38.28125 10.34375 -38.03125 C 10.59375 -37.789062 10.71875 -37.472656 10.71875 -37.078125 L 10.71875 -33.234375 C 10.71875 -32.878906 10.585938 -32.578125 10.328125 -32.328125 C 10.066406 -32.085938 9.757812 -31.96875 9.40625 -31.96875 Z M 4.75 0 C 4.394531 0 4.09375 -0.117188 3.84375 -0.359375 C 3.601562 -0.609375 3.484375 -0.910156 3.484375 -1.265625 L 3.484375 -26.203125 C 3.484375 -26.585938 3.601562 -26.894531 3.84375 -27.125 C 4.09375 -27.351562 4.394531 -27.46875 4.75 -27.46875 L 9.25 -27.46875 C 9.59375 -27.46875 9.890625 -27.34375 10.140625 -27.09375 C 10.390625 -26.851562 10.515625 -26.554688 10.515625 -26.203125 L 10.515625 -1.265625 C 10.515625 -0.910156 10.390625 -0.609375 10.140625 -0.359375 C 9.890625 -0.117188 9.59375 0 9.25 0 Z M 4.75 0 "/></g></g></g><g fill="#ffffff" fill-opacity="1"><g transform="translate(207.255554, 234.972443)"><g><path d="M 4.75 0 C 4.394531 0 4.09375 -0.117188 3.84375 -0.359375 C 3.601562 -0.609375 3.484375 -0.910156 3.484375 -1.265625 L 3.484375 -26.203125 C 3.484375 -26.585938 3.601562 -26.894531 3.84375 -27.125 C 4.09375 -27.351562 4.394531 -27.46875 4.75 -27.46875 L 8.921875 -27.46875 C 9.316406 -27.46875 9.628906 -27.351562 9.859375 -27.125 C 10.085938 -26.894531 10.203125 -26.585938 10.203125 -26.203125 L 10.203125 -24.40625 C 12.097656 -26.800781 14.648438 -28 17.859375 -28 C 21.765625 -28 24.492188 -26.429688 26.046875 -23.296875 C 26.890625 -24.703125 28.085938 -25.835938 29.640625 -26.703125 C 31.191406 -27.566406 32.863281 -28 34.65625 -28 C 37.539062 -28 39.898438 -27.007812 41.734375 -25.03125 C 43.566406 -23.0625 44.484375 -20.191406 44.484375 -16.421875 L 44.484375 -1.265625 C 44.484375 -0.910156 44.367188 -0.609375 44.140625 -0.359375 C 43.910156 -0.117188 43.601562 0 43.21875 0 L 38.828125 0 C 38.472656 0 38.171875 -0.117188 37.921875 -0.359375 C 37.679688 -0.609375 37.5625 -0.910156 37.5625 -1.265625 L 37.5625 -16 C 37.5625 -18.21875 37.09375 -19.820312 36.15625 -20.8125 C 35.226562 -21.800781 34.003906 -22.296875 32.484375 -22.296875 C 31.109375 -22.296875 29.9375 -21.789062 28.96875 -20.78125 C 28 -19.78125 27.515625 -18.1875 27.515625 -16 L 27.515625 -1.265625 C 27.515625 -0.910156 27.398438 -0.609375 27.171875 -0.359375 C 26.953125 -0.117188 26.644531 0 26.25 0 L 21.8125 0 C 21.46875 0 21.171875 -0.117188 20.921875 -0.359375 C 20.671875 -0.609375 20.546875 -0.910156 20.546875 -1.265625 L 20.546875 -16 C 20.546875 -18.1875 20.070312 -19.78125 19.125 -20.78125 C 18.175781 -21.789062 16.960938 -22.296875 15.484375 -22.296875 C 14.109375 -22.296875 12.9375 -21.789062 11.96875 -20.78125 C 11 -19.78125 10.515625 -18.1875 10.515625 -16 L 10.515625 -1.265625 C 10.515625 -0.910156 10.398438 -0.609375 10.171875 -0.359375 C 9.941406 -0.117188 9.632812 0 9.25 0 Z M 4.75 0 "/></g></g></g><g fill="#ffffff" fill-opacity="1"><g transform="translate(257.587396, 234.972443)"><g><path d="M 15.953125 0 C 12.742188 0 10.328125 -0.832031 8.703125 -2.5 C 7.085938 -4.175781 6.28125 -6.632812 6.28125 -9.875 L 6.28125 -21.8125 L 2.109375 -21.8125 C 1.753906 -21.8125 1.453125 -21.9375 1.203125 -22.1875 C 0.960938 -22.4375 0.84375 -22.734375 0.84375 -23.078125 L 0.84375 -26.203125 C 0.84375 -26.554688 0.960938 -26.851562 1.203125 -27.09375 C 1.453125 -27.34375 1.753906 -27.46875 2.109375 -27.46875 L 6.28125 -27.46875 L 6.28125 -36.234375 C 6.28125 -36.628906 6.40625 -36.941406 6.65625 -37.171875 C 6.90625 -37.398438 7.203125 -37.515625 7.546875 -37.515625 L 11.9375 -37.515625 C 12.320312 -37.515625 12.628906 -37.398438 12.859375 -37.171875 C 13.085938 -36.941406 13.203125 -36.628906 13.203125 -36.234375 L 13.203125 -27.46875 L 19.8125 -27.46875 C 20.164062 -27.46875 20.460938 -27.34375 20.703125 -27.09375 C 20.953125 -26.851562 21.078125 -26.554688 21.078125 -26.203125 L 21.078125 -23.078125 C 21.078125 -22.734375 20.953125 -22.4375 20.703125 -22.1875 C 20.460938 -21.9375 20.164062 -21.8125 19.8125 -21.8125 L 13.203125 -21.8125 L 13.203125 -10.453125 C 13.203125 -8.941406 13.46875 -7.796875 14 -7.015625 C 14.53125 -6.242188 15.394531 -5.859375 16.59375 -5.859375 L 20.28125 -5.859375 C 20.664062 -5.859375 20.972656 -5.742188 21.203125 -5.515625 C 21.429688 -5.285156 21.546875 -4.976562 21.546875 -4.59375 L 21.546875 -1.265625 C 21.546875 -0.910156 21.429688 -0.609375 21.203125 -0.359375 C 20.972656 -0.117188 20.664062 0 20.28125 0 Z M 15.953125 0 "/></g></g></g><g fill="#ffffff" fill-opacity="1"><g transform="translate(282.991532, 234.972443)"><g><path d="M 15.6875 0.53125 C 11.53125 0.53125 8.320312 -0.523438 6.0625 -2.640625 C 3.8125 -4.753906 2.601562 -7.675781 2.4375 -11.40625 L 2.375 -13.734375 L 2.4375 -16.0625 C 2.601562 -19.757812 3.832031 -22.671875 6.125 -24.796875 C 8.414062 -26.929688 11.601562 -28 15.6875 -28 C 19.738281 -28 22.910156 -26.929688 25.203125 -24.796875 C 27.492188 -22.671875 28.722656 -19.757812 28.890625 -16.0625 C 28.929688 -15.632812 28.953125 -14.859375 28.953125 -13.734375 C 28.953125 -12.609375 28.929688 -11.832031 28.890625 -11.40625 C 28.722656 -7.675781 27.507812 -4.753906 25.25 -2.640625 C 23 -0.523438 19.8125 0.53125 15.6875 0.53125 Z M 15.6875 -4.8125 C 17.550781 -4.8125 18.984375 -5.390625 19.984375 -6.546875 C 20.992188 -7.710938 21.535156 -9.421875 21.609375 -11.671875 C 21.640625 -12.023438 21.65625 -12.710938 21.65625 -13.734375 C 21.65625 -14.753906 21.640625 -15.441406 21.609375 -15.796875 C 21.535156 -18.046875 20.988281 -19.757812 19.96875 -20.9375 C 18.945312 -22.125 17.519531 -22.71875 15.6875 -22.71875 C 13.820312 -22.71875 12.378906 -22.125 11.359375 -20.9375 C 10.335938 -19.757812 9.789062 -18.046875 9.71875 -15.796875 L 9.671875 -13.734375 L 9.71875 -11.671875 C 9.789062 -9.421875 10.335938 -7.710938 11.359375 -6.546875 C 12.378906 -5.390625 13.820312 -4.8125 15.6875 -4.8125 Z M 15.6875 -4.8125 "/></g></g></g><g fill="#ffffff" fill-opacity="1"><g transform="translate(316.951385, 234.972443)"><g><path d="M 15.953125 0 C 12.742188 0 10.328125 -0.832031 8.703125 -2.5 C 7.085938 -4.175781 6.28125 -6.632812 6.28125 -9.875 L 6.28125 -21.8125 L 2.109375 -21.8125 C 1.753906 -21.8125 1.453125 -21.9375 1.203125 -22.1875 C 0.960938 -22.4375 0.84375 -22.734375 0.84375 -23.078125 L 0.84375 -26.203125 C 0.84375 -26.554688 0.960938 -26.851562 1.203125 -27.09375 C 1.453125 -27.34375 1.753906 -27.46875 2.109375 -27.46875 L 6.28125 -27.46875 L 6.28125 -36.234375 C 6.28125 -36.628906 6.40625 -36.941406 6.65625 -37.171875 C 6.90625 -37.398438 7.203125 -37.515625 7.546875 -37.515625 L 11.9375 -37.515625 C 12.320312 -37.515625 12.628906 -37.398438 12.859375 -37.171875 C 13.085938 -36.941406 13.203125 -36.628906 13.203125 -36.234375 L 13.203125 -27.46875 L 19.8125 -27.46875 C 20.164062 -27.46875 20.460938 -27.34375 20.703125 -27.09375 C 20.953125 -26.851562 21.078125 -26.554688 21.078125 -26.203125 L 21.078125 -23.078125 C 21.078125 -22.734375 20.953125 -22.4375 20.703125 -22.1875 C 20.460938 -21.9375 20.164062 -21.8125 19.8125 -21.8125 L 13.203125 -21.8125 L 13.203125 -10.453125 C 13.203125 -8.941406 13.46875 -7.796875 14 -7.015625 C 14.53125 -6.242188 15.394531 -5.859375 16.59375 -5.859375 L 20.28125 -5.859375 C 20.664062 -5.859375 20.972656 -5.742188 21.203125 -5.515625 C 21.429688 -5.285156 21.546875 -4.976562 21.546875 -4.59375 L 21.546875 -1.265625 C 21.546875 -0.910156 21.429688 -0.609375 21.203125 -0.359375 C 20.972656 -0.117188 20.664062 0 20.28125 0 Z M 15.953125 0 "/></g></g></g><g fill="#ffffff" fill-opacity="1"><g transform="translate(342.355536, 234.972443)"><g><path d="M 4.546875 -31.96875 C 4.191406 -31.96875 3.890625 -32.085938 3.640625 -32.328125 C 3.398438 -32.578125 3.28125 -32.878906 3.28125 -33.234375 L 3.28125 -37.078125 C 3.28125 -37.472656 3.398438 -37.789062 3.640625 -38.03125 C 3.890625 -38.28125 4.191406 -38.40625 4.546875 -38.40625 L 9.40625 -38.40625 C 9.789062 -38.40625 10.101562 -38.28125 10.34375 -38.03125 C 10.59375 -37.789062 10.71875 -37.472656 10.71875 -37.078125 L 10.71875 -33.234375 C 10.71875 -32.878906 10.585938 -32.578125 10.328125 -32.328125 C 10.066406 -32.085938 9.757812 -31.96875 9.40625 -31.96875 Z M 4.75 0 C 4.394531 0 4.09375 -0.117188 3.84375 -0.359375 C 3.601562 -0.609375 3.484375 -0.910156 3.484375 -1.265625 L 3.484375 -26.203125 C 3.484375 -26.585938 3.601562 -26.894531 3.84375 -27.125 C 4.09375 -27.351562 4.394531 -27.46875 4.75 -27.46875 L 9.25 -27.46875 C 9.59375 -27.46875 9.890625 -27.34375 10.140625 -27.09375 C 10.390625 -26.851562 10.515625 -26.554688 10.515625 -26.203125 L 10.515625 -1.265625 C 10.515625 -0.910156 10.390625 -0.609375 10.140625 -0.359375 C 9.890625 -0.117188 9.59375 0 9.25 0 Z M 4.75 0 "/></g></g></g><g fill="#ff3377" fill-opacity="1"><g transform="translate(124.579358, 268.743012)"><g><path d="M 14.109375 -8.234375 L 11.078125 0 L 9.21875 0 L 7.09375 -5.671875 L 4.9375 0 L 3.078125 0 L 0.0625 -8.234375 L 1.875 -8.234375 L 4.0625 -2.15625 L 6.328125 -8.234375 L 7.9375 -8.234375 L 10.15625 -2.125 L 12.40625 -8.234375 Z M 14.109375 -8.234375 "/></g></g></g><g fill="#ff3377" fill-opacity="1"><g transform="translate(141.794199, 268.743012)"><g><path d="M 9 -4.078125 C 9 -3.941406 8.988281 -3.75 8.96875 -3.5 L 2.515625 -3.5 C 2.628906 -2.894531 2.925781 -2.414062 3.40625 -2.0625 C 3.882812 -1.707031 4.476562 -1.53125 5.1875 -1.53125 C 6.082031 -1.53125 6.828125 -1.828125 7.421875 -2.421875 L 8.453125 -1.234375 C 8.078125 -0.796875 7.609375 -0.460938 7.046875 -0.234375 C 6.484375 -0.00390625 5.847656 0.109375 5.140625 0.109375 C 4.234375 0.109375 3.4375 -0.0664062 2.75 -0.421875 C 2.0625 -0.785156 1.53125 -1.289062 1.15625 -1.9375 C 0.78125 -2.582031 0.59375 -3.3125 0.59375 -4.125 C 0.59375 -4.925781 0.773438 -5.644531 1.140625 -6.28125 C 1.503906 -6.925781 2.007812 -7.425781 2.65625 -7.78125 C 3.300781 -8.144531 4.03125 -8.328125 4.84375 -8.328125 C 5.644531 -8.328125 6.359375 -8.148438 6.984375 -7.796875 C 7.617188 -7.441406 8.113281 -6.941406 8.46875 -6.296875 C 8.820312 -5.660156 9 -4.921875 9 -4.078125 Z M 4.84375 -6.78125 C 4.226562 -6.78125 3.707031 -6.597656 3.28125 -6.234375 C 2.851562 -5.867188 2.59375 -5.382812 2.5 -4.78125 L 7.171875 -4.78125 C 7.085938 -5.375 6.832031 -5.851562 6.40625 -6.21875 C 5.988281 -6.59375 5.46875 -6.78125 4.84375 -6.78125 Z M 4.84375 -6.78125 "/></g></g></g><g fill="#ff3377" fill-opacity="1"><g transform="translate(154.432461, 268.743012)"><g><path d="M 5.828125 -8.328125 C 6.628906 -8.328125 7.34375 -8.148438 7.96875 -7.796875 C 8.601562 -7.453125 9.101562 -6.957031 9.46875 -6.3125 C 9.832031 -5.675781 10.015625 -4.945312 10.015625 -4.125 C 10.015625 -3.289062 9.832031 -2.550781 9.46875 -1.90625 C 9.101562 -1.257812 8.601562 -0.757812 7.96875 -0.40625 C 7.34375 -0.0625 6.628906 0.109375 5.828125 0.109375 C 5.265625 0.109375 4.75 0.0078125 4.28125 -0.1875 C 3.8125 -0.382812 3.414062 -0.675781 3.09375 -1.0625 L 3.09375 0 L 1.265625 0 L 1.265625 -11.4375 L 3.1875 -11.4375 L 3.1875 -7.234375 C 3.519531 -7.585938 3.910156 -7.859375 4.359375 -8.046875 C 4.804688 -8.234375 5.296875 -8.328125 5.828125 -8.328125 Z M 5.609375 -1.546875 C 6.316406 -1.546875 6.898438 -1.78125 7.359375 -2.25 C 7.816406 -2.726562 8.046875 -3.351562 8.046875 -4.125 C 8.046875 -4.894531 7.816406 -5.515625 7.359375 -5.984375 C 6.898438 -6.453125 6.316406 -6.6875 5.609375 -6.6875 C 5.148438 -6.6875 4.734375 -6.582031 4.359375 -6.375 C 3.992188 -6.164062 3.703125 -5.863281 3.484375 -5.46875 C 3.265625 -5.082031 3.15625 -4.632812 3.15625 -4.125 C 3.15625 -3.601562 3.265625 -3.144531 3.484375 -2.75 C 3.703125 -2.363281 3.992188 -2.066406 4.359375 -1.859375 C 4.734375 -1.648438 5.148438 -1.546875 5.609375 -1.546875 Z M 5.609375 -1.546875 "/></g></g></g><g fill="#ff3377" fill-opacity="1"><g transform="translate(168.056922, 268.743012)"><g/></g></g><g fill="#ff3377" fill-opacity="1"><g transform="translate(175.363529, 268.743012)"><g><path d="M 9.328125 -11.4375 L 9.328125 0 L 7.484375 0 L 7.484375 -1.0625 C 7.160156 -0.675781 6.765625 -0.382812 6.296875 -0.1875 C 5.828125 0.0078125 5.3125 0.109375 4.75 0.109375 C 3.957031 0.109375 3.242188 -0.0625 2.609375 -0.40625 C 1.984375 -0.757812 1.488281 -1.257812 1.125 -1.90625 C 0.769531 -2.550781 0.59375 -3.289062 0.59375 -4.125 C 0.59375 -4.945312 0.769531 -5.675781 1.125 -6.3125 C 1.488281 -6.957031 1.984375 -7.453125 2.609375 -7.796875 C 3.242188 -8.148438 3.957031 -8.328125 4.75 -8.328125 C 5.289062 -8.328125 5.785156 -8.234375 6.234375 -8.046875 C 6.691406 -7.859375 7.082031 -7.582031 7.40625 -7.21875 L 7.40625 -11.4375 Z M 4.984375 -1.546875 C 5.441406 -1.546875 5.851562 -1.648438 6.21875 -1.859375 C 6.59375 -2.066406 6.890625 -2.363281 7.109375 -2.75 C 7.328125 -3.144531 7.4375 -3.601562 7.4375 -4.125 C 7.4375 -4.632812 7.328125 -5.082031 7.109375 -5.46875 C 6.890625 -5.863281 6.59375 -6.164062 6.21875 -6.375 C 5.851562 -6.582031 5.441406 -6.6875 4.984375 -6.6875 C 4.515625 -6.6875 4.09375 -6.582031 3.71875 -6.375 C 3.351562 -6.164062 3.0625 -5.863281 2.84375 -5.46875 C 2.632812 -5.082031 2.53125 -4.632812 2.53125 -4.125 C 2.53125 -3.601562 2.632812 -3.144531 2.84375 -2.75 C 3.0625 -2.363281 3.351562 -2.066406 3.71875 -1.859375 C 4.09375 -1.648438 4.515625 -1.546875 4.984375 -1.546875 Z M 4.984375 -1.546875 "/></g></g></g><g fill="#ff3377" fill-opacity="1"><g transform="translate(189.003392, 268.743012)"><g><path d="M 9 -4.078125 C 9 -3.941406 8.988281 -3.75 8.96875 -3.5 L 2.515625 -3.5 C 2.628906 -2.894531 2.925781 -2.414062 3.40625 -2.0625 C 3.882812 -1.707031 4.476562 -1.53125 5.1875 -1.53125 C 6.082031 -1.53125 6.828125 -1.828125 7.421875 -2.421875 L 8.453125 -1.234375 C 8.078125 -0.796875 7.609375 -0.460938 7.046875 -0.234375 C 6.484375 -0.00390625 5.847656 0.109375 5.140625 0.109375 C 4.234375 0.109375 3.4375 -0.0664062 2.75 -0.421875 C 2.0625 -0.785156 1.53125 -1.289062 1.15625 -1.9375 C 0.78125 -2.582031 0.59375 -3.3125 0.59375 -4.125 C 0.59375 -4.925781 0.773438 -5.644531 1.140625 -6.28125 C 1.503906 -6.925781 2.007812 -7.425781 2.65625 -7.78125 C 3.300781 -8.144531 4.03125 -8.328125 4.84375 -8.328125 C 5.644531 -8.328125 6.359375 -8.148438 6.984375 -7.796875 C 7.617188 -7.441406 8.113281 -6.941406 8.46875 -6.296875 C 8.820312 -5.660156 9 -4.921875 9 -4.078125 Z M 4.84375 -6.78125 C 4.226562 -6.78125 3.707031 -6.597656 3.28125 -6.234375 C 2.851562 -5.867188 2.59375 -5.382812 2.5 -4.78125 L 7.171875 -4.78125 C 7.085938 -5.375 6.832031 -5.851562 6.40625 -6.21875 C 5.988281 -6.59375 5.46875 -6.78125 4.84375 -6.78125 Z M 4.84375 -6.78125 "/></g></g></g><g fill="#ff3377" fill-opacity="1"><g transform="translate(201.641653, 268.743012)"><g><path d="M 3.8125 0.109375 C 3.144531 0.109375 2.488281 0.0195312 1.84375 -0.15625 C 1.207031 -0.332031 0.703125 -0.550781 0.328125 -0.8125 L 1.0625 -2.28125 C 1.4375 -2.03125 1.878906 -1.832031 2.390625 -1.6875 C 2.910156 -1.539062 3.425781 -1.46875 3.9375 -1.46875 C 5.082031 -1.46875 5.65625 -1.769531 5.65625 -2.375 C 5.65625 -2.664062 5.507812 -2.863281 5.21875 -2.96875 C 4.925781 -3.082031 4.457031 -3.191406 3.8125 -3.296875 C 3.132812 -3.398438 2.582031 -3.519531 2.15625 -3.65625 C 1.726562 -3.789062 1.359375 -4.023438 1.046875 -4.359375 C 0.734375 -4.691406 0.578125 -5.15625 0.578125 -5.75 C 0.578125 -6.53125 0.898438 -7.15625 1.546875 -7.625 C 2.203125 -8.09375 3.082031 -8.328125 4.1875 -8.328125 C 4.757812 -8.328125 5.328125 -8.257812 5.890625 -8.125 C 6.453125 -8 6.914062 -7.832031 7.28125 -7.625 L 6.53125 -6.15625 C 5.832031 -6.5625 5.046875 -6.765625 4.171875 -6.765625 C 3.609375 -6.765625 3.179688 -6.679688 2.890625 -6.515625 C 2.597656 -6.347656 2.453125 -6.125 2.453125 -5.84375 C 2.453125 -5.53125 2.609375 -5.3125 2.921875 -5.1875 C 3.234375 -5.0625 3.71875 -4.941406 4.375 -4.828125 C 5.03125 -4.722656 5.566406 -4.601562 5.984375 -4.46875 C 6.410156 -4.332031 6.773438 -4.101562 7.078125 -3.78125 C 7.390625 -3.46875 7.546875 -3.019531 7.546875 -2.4375 C 7.546875 -1.664062 7.207031 -1.046875 6.53125 -0.578125 C 5.863281 -0.117188 4.957031 0.109375 3.8125 0.109375 Z M 3.8125 0.109375 "/></g></g></g><g fill="#ff3377" fill-opacity="1"><g transform="translate(212.631095, 268.743012)"><g><path d="M 1.265625 -8.234375 L 3.1875 -8.234375 L 3.1875 0 L 1.265625 0 Z M 2.234375 -9.59375 C 1.878906 -9.59375 1.582031 -9.703125 1.34375 -9.921875 C 1.113281 -10.140625 1 -10.414062 1 -10.75 C 1 -11.082031 1.113281 -11.359375 1.34375 -11.578125 C 1.582031 -11.796875 1.878906 -11.90625 2.234375 -11.90625 C 2.578125 -11.90625 2.867188 -11.796875 3.109375 -11.578125 C 3.347656 -11.367188 3.46875 -11.109375 3.46875 -10.796875 C 3.46875 -10.453125 3.347656 -10.164062 3.109375 -9.9375 C 2.878906 -9.707031 2.585938 -9.59375 2.234375 -9.59375 Z M 2.234375 -9.59375 "/></g></g></g><g fill="#ff3377" fill-opacity="1"><g transform="translate(220.138026, 268.743012)"><g><path d="M 9.4375 -8.234375 L 9.4375 -1.25 C 9.4375 1.644531 7.957031 3.09375 5 3.09375 C 4.207031 3.09375 3.457031 2.992188 2.75 2.796875 C 2.039062 2.597656 1.453125 2.304688 0.984375 1.921875 L 1.84375 0.484375 C 2.207031 0.773438 2.664062 1.007812 3.21875 1.1875 C 3.769531 1.375 4.328125 1.46875 4.890625 1.46875 C 5.796875 1.46875 6.457031 1.257812 6.875 0.84375 C 7.300781 0.4375 7.515625 -0.1875 7.515625 -1.03125 L 7.515625 -1.46875 C 7.179688 -1.101562 6.773438 -0.828125 6.296875 -0.640625 C 5.828125 -0.460938 5.3125 -0.375 4.75 -0.375 C 3.96875 -0.375 3.257812 -0.539062 2.625 -0.875 C 2 -1.207031 1.503906 -1.675781 1.140625 -2.28125 C 0.773438 -2.882812 0.59375 -3.578125 0.59375 -4.359375 C 0.59375 -5.140625 0.773438 -5.832031 1.140625 -6.4375 C 1.503906 -7.039062 2 -7.503906 2.625 -7.828125 C 3.257812 -8.160156 3.96875 -8.328125 4.75 -8.328125 C 5.34375 -8.328125 5.882812 -8.226562 6.375 -8.03125 C 6.863281 -7.832031 7.273438 -7.535156 7.609375 -7.140625 L 7.609375 -8.234375 Z M 5.046875 -2 C 5.773438 -2 6.375 -2.21875 6.84375 -2.65625 C 7.3125 -3.09375 7.546875 -3.660156 7.546875 -4.359375 C 7.546875 -5.046875 7.3125 -5.601562 6.84375 -6.03125 C 6.375 -6.46875 5.773438 -6.6875 5.046875 -6.6875 C 4.304688 -6.6875 3.703125 -6.46875 3.234375 -6.03125 C 2.765625 -5.601562 2.53125 -5.046875 2.53125 -4.359375 C 2.53125 -3.660156 2.765625 -3.09375 3.234375 -2.65625 C 3.703125 -2.21875 4.304688 -2 5.046875 -2 Z M 5.046875 -2 "/></g></g></g><g fill="#ff3377" fill-opacity="1"><g transform="translate(233.885754, 268.743012)"><g><path d="M 5.9375 -8.328125 C 6.976562 -8.328125 7.8125 -8.023438 8.4375 -7.421875 C 9.0625 -6.816406 9.375 -5.914062 9.375 -4.71875 L 9.375 0 L 7.453125 0 L 7.453125 -4.46875 C 7.453125 -5.1875 7.28125 -5.726562 6.9375 -6.09375 C 6.601562 -6.457031 6.117188 -6.640625 5.484375 -6.640625 C 4.773438 -6.640625 4.210938 -6.425781 3.796875 -6 C 3.390625 -5.570312 3.1875 -4.957031 3.1875 -4.15625 L 3.1875 0 L 1.265625 0 L 1.265625 -8.234375 L 3.09375 -8.234375 L 3.09375 -7.171875 C 3.414062 -7.546875 3.816406 -7.832031 4.296875 -8.03125 C 4.785156 -8.226562 5.332031 -8.328125 5.9375 -8.328125 Z M 5.9375 -8.328125 "/></g></g></g></svg>