<svg xmlns="http://www.w3.org/2000/svg" xmlns:xlink="http://www.w3.org/1999/xlink" width="500" zoomAndPan="magnify" viewBox="0 0 375 374.999991" height="500" preserveAspectRatio="xMidYMid meet" version="1.0"><defs><clipPath id="46ad90bfa0"><path d="M 257 244 L 375 244 L 375 269.4375 L 257 269.4375 Z M 257 244 " clip-rule="nonzero"/></clipPath><clipPath id="b7b17e0432"><path d="M 0 244 L 118 244 L 118 269.4375 L 0 269.4375 Z M 0 244 " clip-rule="nonzero"/></clipPath><clipPath id="aa5ceb0dcb"><path d="M 41 105.9375 L 334 105.9375 L 334 227 L 41 227 Z M 41 105.9375 " clip-rule="nonzero"/></clipPath></defs><g clip-path="url(#46ad90bfa0)"><path fill="#1ac6d6" d="M 316.132812 244.203125 C 316.285156 244.203125 316.433594 244.265625 316.535156 244.382812 C 331.953125 262.316406 352.6875 270.308594 374.121094 251.113281 C 374.308594 250.945312 374.59375 250.9375 374.796875 251.085938 C 375 251.25 375.054688 251.527344 374.9375 251.757812 C 363.382812 273.234375 332.679688 274.5625 316.132812 258.710938 C 299.589844 274.5625 268.886719 273.234375 257.332031 251.757812 C 257.210938 251.527344 257.269531 251.25 257.472656 251.085938 C 257.671875 250.933594 257.960938 250.945312 258.144531 251.113281 C 279.582031 270.3125 300.316406 262.316406 315.734375 244.382812 C 315.835938 244.265625 315.984375 244.203125 316.132812 244.203125 Z M 316.132812 244.203125 " fill-opacity="1" fill-rule="evenodd"/></g><g clip-path="url(#b7b17e0432)"><path fill="#1ac6d6" d="M 58.863281 244.203125 C 59.015625 244.203125 59.164062 244.265625 59.261719 244.382812 C 74.683594 262.316406 95.417969 270.308594 116.851562 251.113281 C 117.035156 250.945312 117.324219 250.9375 117.523438 251.085938 C 117.726562 251.25 117.785156 251.527344 117.664062 251.757812 C 106.113281 273.234375 75.410156 274.5625 58.863281 258.710938 C 42.316406 274.5625 11.613281 273.234375 0.0585938 251.757812 C -0.0585938 251.527344 0 251.25 0.199219 251.085938 C 0.402344 250.933594 0.691406 250.945312 0.875 251.113281 C 22.308594 270.3125 43.046875 262.316406 58.460938 244.382812 C 58.5625 244.265625 58.710938 244.203125 58.859375 244.203125 Z M 58.863281 244.203125 " fill-opacity="1" fill-rule="evenodd"/></g><path fill="#382e59" d="M 187.5 237.304688 C 175.761719 225.707031 160.328125 224.636719 150.011719 228.902344 C 149.542969 229.097656 149.269531 229.570312 149.339844 230.078125 C 149.414062 230.585938 149.804688 230.964844 150.316406 231.019531 C 168.320312 232.964844 178.601562 243.6875 186.511719 259.800781 C 186.699219 260.1875 187.070312 260.417969 187.5 260.417969 C 187.929688 260.417969 188.296875 260.1875 188.488281 259.800781 C 196.398438 243.6875 206.675781 232.964844 224.683594 231.019531 C 225.191406 230.96875 225.585938 230.585938 225.65625 230.078125 C 225.726562 229.570312 225.457031 229.097656 224.984375 228.902344 C 214.667969 224.636719 199.238281 225.707031 187.5 237.304688 Z M 187.5 237.304688 " fill-opacity="1" fill-rule="evenodd"/><g clip-path="url(#aa5ceb0dcb)"><path fill="#ff3377" d="M 76.273438 226.519531 C 76.09375 226.519531 75.917969 226.472656 75.753906 226.375 C 75.308594 226.101562 75.148438 225.53125 75.390625 225.066406 C 85.46875 205.585938 101.507812 188.441406 120.554688 176.785156 C 140.214844 164.648438 163.972656 157.960938 187.449219 157.960938 L 187.546875 157.960938 C 211.027344 157.960938 234.78125 164.648438 254.4375 176.789062 C 273.484375 188.441406 289.527344 205.585938 299.601562 225.066406 C 299.84375 225.53125 299.683594 226.101562 299.238281 226.375 C 298.796875 226.648438 298.210938 226.53125 297.90625 226.101562 C 285.40625 208.496094 268.707031 193.96875 249.617188 184.085938 C 230.625 174.199219 209.148438 168.96875 187.492188 168.957031 C 165.839844 168.96875 144.359375 174.199219 125.375 184.085938 C 106.28125 193.964844 89.582031 208.496094 77.078125 226.101562 C 76.886719 226.375 76.582031 226.519531 76.269531 226.519531 Z M 116.691406 122.214844 C 113.496094 123.617188 111.304688 127.546875 113.308594 132.328125 C 115.882812 138.472656 123.402344 145.449219 126.886719 147.628906 C 127.050781 147.734375 127.242188 147.785156 127.429688 147.785156 C 127.570312 147.785156 127.710938 147.757812 127.84375 147.699219 C 128.15625 147.5625 128.375 147.28125 128.441406 146.945312 C 129.199219 142.898438 129.171875 132.628906 126.410156 126.574219 C 124.253906 121.851562 119.886719 120.808594 116.695312 122.210938 Z M 86.007812 141.691406 C 83.332031 143.632812 82.09375 147.695312 84.902344 151.710938 C 88.476562 156.832031 96.753906 161.734375 100.386719 163.042969 C 100.496094 163.082031 100.617188 163.101562 100.730469 163.101562 C 100.945312 163.101562 101.15625 163.035156 101.335938 162.90625 C 101.609375 162.707031 101.765625 162.382812 101.761719 162.042969 C 101.65625 158.179688 99.589844 148.769531 95.851562 143.761719 C 92.921875 139.835938 88.679688 139.746094 86.007812 141.691406 Z M 50.488281 195.964844 C 47.003906 194.046875 43.832031 195.417969 42.503906 197.761719 C 41.167969 200.109375 41.605469 203.542969 45.027344 205.566406 C 48.792969 207.796875 55.152344 208.691406 58.660156 208.691406 C 59.105469 208.691406 59.503906 208.675781 59.847656 208.648438 C 60.183594 208.621094 60.488281 208.425781 60.65625 208.132812 C 60.824219 207.835938 60.832031 207.476562 60.683594 207.171875 C 59.355469 204.429688 54.808594 198.339844 50.488281 195.960938 Z M 151.109375 110.128906 C 147.582031 110.875 144.546875 114.382812 145.566406 119.644531 C 146.867188 126.328125 153.128906 135.179688 156.121094 138.050781 C 156.3125 138.234375 156.570312 138.335938 156.832031 138.335938 C 156.898438 138.335938 156.972656 138.328125 157.042969 138.316406 C 157.375 138.246094 157.652344 138.015625 157.777344 137.703125 C 159.359375 133.863281 161.519531 123.230469 160.015625 116.589844 C 158.828125 111.363281 154.644531 109.386719 151.109375 110.128906 Z M 60.875 167.378906 C 58.839844 169.640625 58.5 173.53125 61.785156 176.597656 C 65.929688 180.46875 74.207031 183.253906 77.671875 183.730469 C 77.71875 183.734375 77.765625 183.738281 77.8125 183.738281 C 78.101562 183.738281 78.378906 183.617188 78.574219 183.398438 C 78.800781 183.144531 78.890625 182.796875 78.808594 182.46875 C 77.988281 179.058594 74.378906 171.089844 70.117188 167.351562 C 66.738281 164.390625 62.910156 165.125 60.875 167.382812 Z M 332.496094 197.769531 C 331.167969 195.425781 327.996094 194.050781 324.511719 195.96875 C 320.191406 198.347656 315.644531 204.4375 314.316406 207.175781 C 314.164062 207.480469 314.175781 207.839844 314.34375 208.136719 C 314.511719 208.429688 314.816406 208.625 315.152344 208.652344 C 315.496094 208.679688 315.894531 208.695312 316.34375 208.695312 C 319.847656 208.695312 326.207031 207.800781 329.972656 205.570312 C 333.394531 203.546875 333.832031 200.117188 332.496094 197.769531 Z M 314.128906 167.382812 C 312.09375 165.128906 308.261719 164.390625 304.886719 167.351562 C 300.625 171.089844 297.015625 179.058594 296.191406 182.46875 C 296.113281 182.796875 296.199219 183.148438 296.429688 183.398438 C 296.625 183.617188 296.902344 183.742188 297.191406 183.742188 C 297.234375 183.742188 297.28125 183.738281 297.328125 183.730469 C 300.796875 183.257812 309.070312 180.476562 313.21875 176.601562 C 316.5 173.535156 316.160156 169.644531 314.125 167.382812 Z M 187.5 105.96875 C 183.859375 105.96875 180.125 108.804688 180.042969 114.21875 C 179.933594 121.109375 184.289062 131.183594 186.652344 134.652344 C 186.84375 134.933594 187.160156 135.101562 187.5 135.101562 C 187.835938 135.101562 188.15625 134.933594 188.347656 134.652344 C 190.710938 131.1875 195.066406 121.113281 194.960938 114.21875 C 194.875 108.800781 191.140625 105.96875 187.5 105.96875 Z M 288.992188 141.695312 C 286.320312 139.75 282.074219 139.839844 279.148438 143.765625 C 275.410156 148.769531 273.347656 158.183594 273.242188 162.046875 C 273.234375 162.386719 273.390625 162.707031 273.664062 162.90625 C 273.84375 163.039062 274.054688 163.101562 274.269531 163.101562 C 274.382812 163.101562 274.503906 163.082031 274.613281 163.042969 C 278.246094 161.738281 286.523438 156.832031 290.097656 151.714844 C 292.90625 147.699219 291.667969 143.632812 288.992188 141.691406 Z M 223.894531 110.128906 C 220.371094 109.378906 216.171875 111.359375 214.988281 116.589844 C 213.460938 123.320312 215.597656 133.753906 217.222656 137.703125 C 217.351562 138.015625 217.628906 138.246094 217.957031 138.316406 C 218.027344 138.332031 218.101562 138.339844 218.171875 138.339844 C 218.433594 138.339844 218.6875 138.238281 218.878906 138.054688 C 221.871094 135.183594 228.132812 126.332031 229.433594 119.644531 C 230.453125 114.382812 227.417969 110.875 223.890625 110.128906 Z M 258.3125 122.21875 C 255.117188 120.8125 250.75 121.855469 248.59375 126.574219 C 245.832031 132.632812 245.800781 142.902344 246.5625 146.949219 C 246.625 147.28125 246.847656 147.566406 247.15625 147.703125 C 247.289062 147.761719 247.429688 147.789062 247.570312 147.789062 C 247.757812 147.789062 247.945312 147.734375 248.113281 147.632812 C 251.5 145.511719 259.152344 138.390625 261.691406 132.335938 C 263.695312 127.550781 261.507812 123.625 258.308594 122.21875 Z M 258.3125 122.21875 " fill-opacity="1" fill-rule="evenodd"/></g></svg>