<svg xmlns="http://www.w3.org/2000/svg" xmlns:xlink="http://www.w3.org/1999/xlink" width="500" zoomAndPan="magnify" viewBox="0 0 375 374.999991" height="500" preserveAspectRatio="xMidYMid meet" version="1.0"><defs><clipPath id="18dade1ba6"><path d="M 6 6 L 369 6 L 369 369 L 6 369 Z M 6 6 " clip-rule="nonzero"/></clipPath><clipPath id="82c80f1495"><path d="M -156.523438 185.542969 L 185.546875 -156.527344 L 530.417969 188.34375 L 188.351562 530.414062 Z M -156.523438 185.542969 " clip-rule="nonzero"/></clipPath><clipPath id="45b43f5fd3"><path d="M 39.101562 6.273438 L 333.945312 7.871094 C 352.230469 7.96875 367.027344 22.765625 367.125 41.050781 L 368.722656 335.894531 C 368.769531 344.613281 365.324219 352.992188 359.160156 359.15625 C 352.996094 365.320312 344.621094 368.765625 335.902344 368.714844 L 41.054688 367.121094 C 22.773438 367.019531 7.976562 352.222656 7.875 333.941406 L 6.28125 39.09375 C 6.230469 30.375 9.675781 22 15.839844 15.835938 C 22.003906 9.671875 30.382812 6.226562 39.101562 6.273438 Z M 39.101562 6.273438 " clip-rule="nonzero"/></clipPath></defs><g clip-path="url(#18dade1ba6)"><g clip-path="url(#82c80f1495)"><g clip-path="url(#45b43f5fd3)"><path fill="#43376a" d="M -173.34375 185.542969 L 185.546875 -173.351562 L 548.644531 189.746094 L 189.753906 548.640625 Z M -173.34375 185.542969 " fill-opacity="1" fill-rule="nonzero"/></g></g></g></svg>