<svg xmlns="http://www.w3.org/2000/svg" xmlns:xlink="http://www.w3.org/1999/xlink" width="500" zoomAndPan="magnify" viewBox="0 0 375 374.999991" height="500" preserveAspectRatio="xMidYMid meet" version="1.0"><defs><clipPath id="fa22436fd3"><path d="M 14 173 L 294.75 173 L 294.75 375 L 14 375 Z M 14 173 " clip-rule="nonzero"/></clipPath><clipPath id="fbe0b30df2"><path d="M 170 282 L 294.75 282 L 294.75 375 L 170 375 Z M 170 282 " clip-rule="nonzero"/></clipPath></defs><path fill="#00aeef" d="M 197.765625 375 L 107.574219 375 L 0.414062 267.839844 L 0.414062 177.648438 Z M 197.765625 375 " fill-opacity="1" fill-rule="nonzero"/><path fill="#d4c4e9" d="M 223.21875 222.804688 L 182.566406 263.460938 L 174.703125 271.308594 L 172.785156 273.246094 L 166.164062 279.851562 L 0.414062 114.105469 L 0.414062 0 Z M 223.21875 222.804688 " fill-opacity="1" fill-rule="nonzero"/><g clip-path="url(#fa22436fd3)"><path fill="#ff3377" d="M 294.105469 375 L 136.613281 375 L 14.058594 252.433594 L 27.546875 238.945312 L 29.480469 237.019531 L 44.628906 221.863281 L 76.402344 190.089844 L 83.015625 183.484375 L 84.941406 181.546875 L 92.804688 173.6875 L 182.566406 263.460938 Z M 294.105469 375 " fill-opacity="1" fill-rule="nonzero"/></g><path fill="#ffffff" d="M 86.519531 294.058594 L 84.601562 295.992188 L 0.414062 211.816406 L 0.414062 207.953125 Z M 86.519531 294.058594 " fill-opacity="1" fill-rule="nonzero"/><g clip-path="url(#fbe0b30df2)"><path fill="#00aeef" d="M 202.039062 282.925781 L 294.105469 375 L 231.359375 375 L 170.664062 314.304688 L 192.253906 292.722656 L 194.179688 290.785156 Z M 202.039062 282.925781 " fill-opacity="1" fill-rule="nonzero"/></g><path fill="#ffffff" d="M 278.394531 375 L 274.53125 375 L 192.253906 292.722656 L 172.785156 273.246094 L 83.015625 183.484375 L 53.804688 154.273438 L 55.734375 152.339844 Z M 278.394531 375 " fill-opacity="1" fill-rule="nonzero"/></svg>